<?xml version="1.0" encoding="utf-8"?>
<!-- Svg Vector Icons : http://www.onlinewebfonts.com/icon -->
<!DOCTYPE svg PUBLIC "-//W3C//DTD SVG 1.1//EN" "http://www.w3.org/Graphics/SVG/1.1/DTD/svg11.dtd">
<svg version="1.1" xmlns="http://www.w3.org/2000/svg" xmlns:xlink="http://www.w3.org/1999/xlink" x="0px" y="0px" viewBox="0 0 1000 1000" enable-background="new 0 0 1000 1000" xml:space="preserve">
<metadata> Svg Vector Icons : http://www.onlinewebfonts.com/icon </metadata>
<g><g><path d="M668.4,722c-16.9,0-30.1,10-44,20.5C608,755.1,591,768,564.8,768c-30.8,0-49.5-14.9-49.5-21.4V732c7.9-3.6,19.5-9.5,31.3-17.1c30.1-19.3,45.3-39.9,45.3-61c0-43-35.2-69.8-91.9-69.8s-91.9,26.7-91.9,69.8c0,21.1,15.2,41.7,45.3,61c11.7,7.6,23.4,13.4,31.3,17.1v14.5c0,6.5-18.7,21.4-49.5,21.4c-26.2,0-43.2-12.9-59.7-25.4c-13.9-10.6-27.1-20.5-44-20.5c-8.5,0-15.3,6.9-15.3,15.3c0,8.5,6.9,15.3,15.3,15.3c6.6,0,15.4,6.6,25.5,14.3c17.6,13.3,41.7,31.6,78.2,31.6c26.6,0,50.2-8.5,64.8-21.5c14.6,13,38.2,21.5,64.8,21.5c36.5,0,60.6-18.3,78.2-31.6c10.1-7.7,18.9-14.3,25.5-14.3c8.5,0,15.3-6.9,15.3-15.3C683.8,728.9,676.9,722,668.4,722z M438.8,654c0-35.3,42.8-39.1,61.3-39.1c55.3,0,61.3,27.4,61.3,39.1c0,17.2-34.7,39.7-61.3,51.4C473.4,693.7,438.8,671.2,438.8,654z"/><path d="M392.8,446.4c0-33.8-27.5-61.3-61.3-61.3c-33.8,0-61.3,27.5-61.3,61.3c0,33.8,27.5,61.3,61.3,61.3C365.3,507.7,392.8,480.2,392.8,446.4z M300.9,446.4c0-16.9,13.7-30.6,30.6-30.6c16.9,0,30.6,13.7,30.6,30.6S348.4,477,331.6,477C314.7,477,300.9,463.3,300.9,446.4z"/><path d="M668.4,385.2c-33.8,0-61.3,27.5-61.3,61.3c0,33.8,27.5,61.3,61.3,61.3c33.8,0,61.3-27.5,61.3-61.3C729.7,412.6,702.2,385.2,668.4,385.2z M668.4,477c-16.9,0-30.6-13.7-30.6-30.6s13.7-30.6,30.6-30.6c16.9,0,30.6,13.7,30.6,30.6S685.3,477,668.4,477z"/><path d="M923.7,187.6C861.9,97.8,817.4,78.9,790.9,78.9c-43,0-76,24.5-89.4,65.9c-20.9,9.8-36.8,5.8-66-1.8c-29.6-7.7-70.1-18.2-135.6-18.2S394,135.3,364.4,143c-29.2,7.6-45.1,11.6-66,1.8c-13.4-41.4-46.3-65.9-89.4-65.9c-26.5,0-71,18.9-132.7,108.7C44.4,234,10,299.4,10,323.9c0,7,4.2,10.9,7.6,14c8.7,8.1,35.2,32.7,38.4,78.9c2,28.9,11.3,59.8,25.6,84.8c15.7,27.6,35.9,45.6,56.7,50.8c3.5,0.9,7.7,1.5,12.4,1.5c3.9,0,8.2-0.4,12.7-1.6c1.8,55.6,14.1,103,37.6,144.5c22.6,40,56.3,76.2,106,114c4,3,9.7,10.6,15.7,18.6c25.7,34.3,68.8,91.7,177.3,91.7s151.6-57.4,177.3-91.7c6-8,11.7-15.6,15.7-18.6c49.7-37.8,83.3-74,106-114c23.5-41.5,35.9-88.9,37.6-144.5c4.5,1.2,8.8,1.6,12.7,1.6c4.7,0,9-0.7,12.4-1.5c45.8-11.2,78.4-79.1,82.3-135.5c3.2-46.3,29.7-70.9,38.4-78.9c3.4-3.1,7.6-7,7.6-14C990,299.4,955.6,234,923.7,187.6z M913.5,414.7c-1.7,24.5-9.6,50.6-21.6,71.8c-11.3,19.9-25,33.1-37.4,36.2c-12.1,3-23.9-4.8-35.1-23c-16.2-26.3-5.9-82.8,3.9-137.4c14.4-79.8,30.7-170.2-22-218.1c-6.3-5.7-15.9-5.2-21.6,1.1c-5.7,6.3-5.2,15.9,1.1,21.6c40.2,36.4,26.1,114.5,12.4,189.9c-11.4,63.1-22.2,122.7,0.1,158.9c4.5,7.3,9.1,13.3,13.7,18.1c-0.4,1.4-0.7,2.9-0.7,4.5c0,122.7-52.7,187.9-131.8,248.1c-7.4,5.6-14,14.4-21.6,24.6c-23.7,31.6-59.6,79.5-152.8,79.5S370.9,842.7,347.2,811c-7.6-10.2-14.2-19-21.6-24.6C246.4,726.2,193.8,661,193.8,538.3c0-1.6-0.2-3.1-0.7-4.5c4.6-4.9,9.2-10.8,13.7-18.1c22.3-36.3,11.5-95.8,0.1-158.9c-13.6-75.5-27.7-153.5,12.4-189.9c6.3-5.7,6.7-15.4,1.1-21.6c-5.7-6.3-15.4-6.7-21.6-1.1c-52.7,47.8-36.4,138.3-22,218.1c9.9,54.6,20.1,111.1,3.9,137.4c-11.2,18.2-23,26-35.1,23c-12.4-3.1-26.1-16.2-37.4-36.2c-12-21.1-19.9-47.3-21.6-71.8c-2.6-37.3-17.7-69.7-45-96.3c4.5-17.3,25.3-63,60-113.5c41.1-59.8,81.2-95.4,107.5-95.4c18.2,0,50.4,6.5,61.7,49.8c0,0,0,0.1,0,0.1c0.1,0.3,0.2,0.6,0.3,0.8c0.1,0.2,0.1,0.4,0.2,0.6c0.1,0.2,0.2,0.5,0.3,0.7c0.1,0.2,0.2,0.5,0.3,0.7c0.1,0.2,0.2,0.4,0.3,0.6c0.1,0.2,0.3,0.5,0.4,0.7c0.1,0.2,0.3,0.4,0.4,0.6c0.1,0.2,0.3,0.4,0.4,0.6c0.2,0.2,0.3,0.4,0.5,0.6c0.1,0.2,0.3,0.4,0.4,0.5c0.2,0.2,0.4,0.4,0.6,0.6c0.2,0.2,0.3,0.3,0.5,0.5c0.2,0.2,0.4,0.3,0.6,0.5c0.2,0.2,0.4,0.3,0.6,0.5c0.2,0.1,0.4,0.2,0.6,0.4c0.2,0.2,0.5,0.3,0.7,0.4c0,0,0.1,0.1,0.1,0.1c16.4,9.2,30.7,12.5,44.9,12.5c15.6,0,31-4,49-8.7c29.6-7.7,66.4-17.2,127.9-17.2c61.5,0,98.3,9.5,127.9,17.2c18.1,4.7,33.5,8.7,49,8.7c14.2,0,28.5-3.3,44.9-12.5c0,0,0.1-0.1,0.1-0.1c0.3-0.1,0.5-0.3,0.8-0.5c0.2-0.1,0.4-0.2,0.5-0.4c0.2-0.2,0.4-0.3,0.6-0.5c0.2-0.1,0.4-0.3,0.6-0.4c0.2-0.2,0.4-0.3,0.5-0.5c0.2-0.2,0.4-0.3,0.5-0.5c0.2-0.2,0.3-0.4,0.5-0.6c0.2-0.2,0.3-0.4,0.5-0.5c0.2-0.2,0.3-0.5,0.5-0.7c0.1-0.2,0.2-0.3,0.4-0.5c0.2-0.2,0.3-0.5,0.4-0.7c0.1-0.2,0.2-0.4,0.3-0.6c0.1-0.2,0.2-0.5,0.3-0.7s0.2-0.5,0.3-0.7c0.1-0.2,0.1-0.4,0.2-0.6c0.1-0.3,0.2-0.6,0.3-0.8c0,0,0-0.1,0-0.1c11.3-43.3,43.5-49.8,61.7-49.8c26.3,0,66.4,35.7,107.5,95.4c34.7,50.5,55.5,96.2,60,113.5C931.2,345,916.1,377.4,913.5,414.7z"/><path d="M543.3,810.2c-28.7,5-57.8,5-86.5,0c-8.3-1.5-16.3,4.1-17.7,12.5c-1.5,8.3,4.1,16.3,12.5,17.7c16.1,2.8,32.3,4.2,48.5,4.2s32.4-1.4,48.5-4.2c8.3-1.5,13.9-9.4,12.5-17.7C559.5,814.3,551.6,808.7,543.3,810.2z"/></g><g></g><g></g><g></g><g></g><g></g><g></g><g></g><g></g><g></g><g></g><g></g><g></g><g></g><g></g><g></g></g>
</svg>